# xmcd
#
# Track frame offsets: 
#        150
#        17676
#        31810
#        44991
#        53901
#        70609
#        100941
#        122579
#        141540
#        160782
#        189216
#        211036
#        237685
#        256183
#        279101
#
# Disc length: 3905 seconds
#
# Revision: 3
# Processed by: cddbd v1.5.1PL0 Copyright (c) Steve Scherf et al.
# Submitted via: ExactAudioCopy v0.95a5
#
DISCID=ce0f3f0f
DTITLE=Various Artist - bossa nova
DYEAR=2004
DGENRE=Latin
TTITLE0=Deve Ser Amor (Vinicius De Moraes - R. Baden Powell, 1954)
TTITLE1=Batukada (Luiz Bonfa, 1991)
TTITLE2=Samba de Minha Terra (Dorival Caymmi)
TTITLE3=Bim Bom (Joao Gilberto, 1964)
TTITLE4=E Luxo So (Ary Barroso - Luis Peixoto, 1962)
TTITLE5=Baia (Barroso, 1962)
TTITLE6=Samba Triste (Billy Bianco - Baden Powell, 1962)
TTITLE7=Desafinado (Antonio Carlos Jobim - Newton Mendonca, 1964)
TTITLE8=Corcovado (Antonio Carlos Jobim - Gene Lees, 1964)
TTITLE9=Garota de Ipanema (De Moraes - N. Gimbel, 1964)
TTITLE10=Clouds (Mauricio Einhorn - Durval Ferreira, 1962)
TTITLE11=Samba de Uma Nota So (Jobim - Mendonca, 1962)
TTITLE12=O Pato (Jayme Silva - Neuza Teixeira, 1962)
TTITLE13=Meditation (Jobim - Gimbel - Mendonca, 1991)
TTITLE14=Inqietacao (Barroso)
EXTD=S&V disk 077
EXTT0=
EXTT1=
EXTT2=
EXTT3=
EXTT4=
EXTT5=
EXTT6=
EXTT7=
EXTT8=
EXTT9=
EXTT10=
EXTT11=
EXTT12=
EXTT13=
EXTT14=
PLAYORDER=
